<svg width="25" height="17" viewBox="0 0 25 17" fill="none" xmlns="http://www.w3.org/2000/svg">
<path d="M21.7709 3.05235H15.4893V1.49158H21.7709V3.05235ZM12.1693 9.44927C12.5739 10.0777 12.777 10.8416 12.777 11.7347C12.777 12.6616 12.5485 13.4908 12.0839 14.2239C11.7885 14.7093 11.4209 15.1193 10.9801 15.4485C10.4832 15.83 9.89547 16.0931 9.22009 16.2339C8.54163 16.3747 7.80855 16.4431 7.01855 16.4431H-0.00683594V0.846191H7.52547C9.42393 0.876191 10.7701 1.42619 11.5647 2.50773C12.0416 3.17004 12.2778 3.96465 12.2778 4.8885C12.2778 5.84311 12.0378 6.60542 11.557 7.18465C11.2893 7.51004 10.8939 7.80619 10.3693 8.07234C11.1639 8.36388 11.7662 8.82004 12.1693 9.44927ZM3.59009 6.99542H6.89086C7.56932 6.99542 8.11778 6.86542 8.53932 6.6085C8.96163 6.35081 9.17239 5.89311 9.17239 5.23619C9.17239 4.51158 8.89393 4.03004 8.3347 3.7985C7.85393 3.63696 7.23932 3.55388 6.49393 3.55388H3.59009V6.99542ZM9.49009 11.5116C9.49009 10.7016 9.15855 10.1423 8.49778 9.84081C8.12855 9.67081 7.60701 9.58234 6.93855 9.57619H3.59009V13.7323H6.88547C7.56316 13.7323 8.08701 13.6447 8.46547 13.4585C9.14778 13.12 9.49009 12.4731 9.49009 11.5116ZM24.1009 8.97465C24.1778 9.48542 24.2124 10.2254 24.197 11.1931H16.0632C16.1085 12.3162 16.4955 13.1008 17.2316 13.55C17.6739 13.8316 18.2116 13.9693 18.8416 13.9693C19.5055 13.9693 20.0462 13.8016 20.4624 13.457C20.6893 13.2739 20.8893 13.0154 21.0616 12.6908H24.0439C23.9647 13.3531 23.607 14.0247 22.9609 14.71C21.9616 15.7947 20.5601 16.3416 18.7601 16.3416C17.2716 16.3416 15.9616 15.88 14.8239 14.9654C13.6893 14.0485 13.1201 12.557 13.1201 10.4908C13.1201 8.55311 13.6324 7.0685 14.6585 6.03696C15.6878 5.00235 17.0162 4.48773 18.6547 4.48773C19.6255 4.48773 20.5009 4.66081 21.2824 5.00927C22.0609 5.35927 22.7039 5.9085 23.2101 6.66388C23.6678 7.32927 23.9632 8.0985 24.1009 8.97465ZM21.1647 9.26619C21.1116 8.49004 20.8516 7.90234 20.3839 7.50081C19.9201 7.09696 19.3424 6.89542 18.6532 6.89542C17.9009 6.89542 17.3232 7.11081 16.9093 7.53542C16.4947 7.96081 16.237 8.53619 16.1309 9.26619H21.1647Z" fill="#707070"/>
</svg>
