<svg width="32" height="34" viewBox="0 0 32 34" fill="none" xmlns="http://www.w3.org/2000/svg">
<path d="M5.51455 0.433303C4.63864 -0.0939679 3.59472 -0.141117 2.68428 0.297833L17.9492 15.5953L22.9404 10.5809L5.51455 0.433303ZM1.28177 1.71363C1.08919 2.12137 0.985596 2.57493 0.985596 3.04177V31.0243C0.985596 31.4931 1.08985 31.9401 1.28443 32.3392L16.5434 17.0078L1.28177 1.71363ZM17.9513 18.4183L2.71091 33.731C3.11533 33.9183 3.54565 34 3.9753 34C4.50589 34 5.03515 33.8732 5.51461 33.585L22.9438 23.422L17.9513 18.4183ZM29.5772 14.4458C29.5712 14.4418 29.5645 14.4379 29.5586 14.4345L24.7201 11.6169L19.3565 17.0058L24.7235 22.3841C24.7235 22.3841 29.5712 19.5578 29.5772 19.5545C30.477 19.008 31.0142 18.053 31.0142 16.9998C31.0142 15.9466 30.477 14.9917 29.5772 14.4458Z" fill="white"/>
</svg>
