<svg width="24" height="20" viewBox="0 0 24 20" fill="none" xmlns="http://www.w3.org/2000/svg">
<path d="M8.75911 19.9998C7.74303 19.9998 6.69719 19.9175 5.64507 19.7526C3.792 19.4618 1.91615 18.4925 1.38535 18.2023L-0.00683594 17.4411L1.50044 16.9455C3.14807 16.4037 4.15035 16.0676 5.39105 15.5413C4.14874 14.9397 3.19128 13.8574 2.73038 12.4584L2.37974 11.394L2.66728 11.4379C2.39462 11.1631 2.17932 10.8841 2.01242 10.6305C1.41887 9.72893 1.10462 8.62734 1.17148 7.68332L1.23745 6.75418L1.79372 6.96966C1.55906 6.52651 1.38947 6.05325 1.2898 5.55722C1.04689 4.34753 1.25018 3.06237 1.86237 1.93855L2.34693 1.04903L2.99498 1.8274C5.04453 4.28945 7.64049 5.74993 10.7215 6.17748C10.5957 5.31001 10.69 4.47284 11.0021 3.72243C11.3655 2.84869 12.0119 2.10778 12.8709 1.57966C13.825 0.993279 14.982 0.709141 16.1287 0.779593C17.3454 0.854347 18.4501 1.31022 19.3274 2.09881C19.7558 1.98749 20.0715 1.86864 20.4982 1.70801C20.7549 1.61139 21.046 1.50168 21.4103 1.37619L22.7526 0.913684L21.8773 3.41373C21.935 3.40889 21.9945 3.40477 22.0567 3.40208L23.4901 3.33719L22.6429 4.49507C22.5943 4.5614 22.582 4.58022 22.5648 4.60621C22.4965 4.70911 22.4115 4.83711 21.2486 6.38991C20.9575 6.77874 20.8121 7.28517 20.8391 7.81616C20.9422 9.83398 20.6947 11.6596 20.1029 13.2422C19.5432 14.7394 18.6759 16.024 17.5254 17.0604C16.1017 18.3425 14.2862 19.2204 12.1293 19.6692C11.0713 19.8894 9.93509 19.9998 8.75911 19.9998Z" fill="#707070"/>
</svg>
